<svg xmlns="http://www.w3.org/2000/svg" width="40" height="40" viewBox="0 0 40 40"><defs><style>.a{fill:none;}.b{fill:#fff;}</style></defs><g transform="translate(0.329)"><rect class="a" width="40" height="40" transform="translate(-0.329)"/><g transform="translate(6.563 7.5)"><path class="b" d="M2635.543,472.772h-9.813a.961.961,0,0,1-.962-.961v-9.2a.961.961,0,0,1,.962-.961h9.813a.961.961,0,0,1,.961.961v9.2A.961.961,0,0,1,2635.543,472.772Zm-8.851-1.923h7.889v-7.28h-7.889Z" transform="translate(-2624.768 -461.646)"/><g transform="translate(14.483)"><path class="b" d="M2650.025,472.772h-9.813a.961.961,0,0,1-.961-.961v-9.2a.961.961,0,0,1,.961-.961h9.813a.962.962,0,0,1,.962.961v9.2A.962.962,0,0,1,2650.025,472.772Zm-8.851-1.923h7.89v-7.28h-7.89Z" transform="translate(-2639.251 -461.646)"/></g><g transform="translate(0 13.873)"><path class="b" d="M2635.543,486.646h-9.813a.962.962,0,0,1-.962-.962v-9.2a.961.961,0,0,1,.962-.961h9.813a.961.961,0,0,1,.961.961v9.2A.961.961,0,0,1,2635.543,486.646Zm-8.851-1.923h7.889v-7.281h-7.889Z" transform="translate(-2624.768 -475.519)"/></g><g transform="translate(14.483 13.873)"><path class="b" d="M2650.025,486.646h-9.813a.961.961,0,0,1-.961-.962v-9.2a.961.961,0,0,1,.961-.961h9.813a.962.962,0,0,1,.962.961v9.2A.963.963,0,0,1,2650.025,486.646Zm-8.851-1.923h7.89v-7.281h-7.89Z" transform="translate(-2639.251 -475.519)"/></g></g></g></svg>