<svg id="Group_2076" data-name="Group 2076" xmlns="http://www.w3.org/2000/svg" width="22.446" height="25" viewBox="0 0 22.446 25">
  <g id="Group_1913" data-name="Group 1913" transform="translate(5.892 12.98)">
    <path id="Path_1105" data-name="Path 1105" d="M128.606,72.926a1.25,1.25,0,0,1-1.25-1.25v-5.44a2.831,2.831,0,0,0-5.661,0v5.44a1.25,1.25,0,0,1-2.5,0v-5.44a5.331,5.331,0,0,1,10.661,0v5.44A1.25,1.25,0,0,1,128.606,72.926Z" transform="translate(-119.195 -60.906)" fill="grey"/>
  </g>
  <g id="Group_1914" data-name="Group 1914">
    <path id="Path_1106" data-name="Path 1106" d="M134.5,72.926H114.553a1.25,1.25,0,0,1-1.25-1.25V57.061a1.25,1.25,0,0,1,.48-.985l10.088-7.885a1.25,1.25,0,0,1,1.548.007l9.855,7.832a1.249,1.249,0,0,1,.475.98V71.676A1.25,1.25,0,0,1,134.5,72.926Zm-18.7-2.5h17.446V57.615l-8.614-6.847-8.832,6.9Z" transform="translate(-113.303 -47.926)" fill="grey"/>
  </g>
</svg>
