<svg id="Group_4092" data-name="Group 4092" xmlns="http://www.w3.org/2000/svg" width="18.463" height="24.951" viewBox="0 0 18.463 24.951">
  <g id="Group_902" data-name="Group 902">
    <g id="Group_898" data-name="Group 898" transform="translate(0 15.091)">
      <path id="Path_807" data-name="Path 807" d="M2982.728,508.281h-14.709a1.877,1.877,0,0,1-1.849-2.2l.384-2.223a1.872,1.872,0,0,1,1.85-1.558h13.94a1.873,1.873,0,0,1,1.849,1.558l.384,2.223a1.877,1.877,0,0,1-1.849,2.2Zm-14.325-4.208a.107.107,0,0,0-.107.089l-.384,2.223a.1.1,0,0,0,.024.088.1.1,0,0,0,.083.038h14.709a.1.1,0,0,0,.082-.038.1.1,0,0,0,.024-.088l-.384-2.223a.106.106,0,0,0-.105-.089Z" transform="translate(-2966.142 -502.303)" fill="grey"/>
    </g>
    <g id="Group_899" data-name="Group 899" transform="translate(2.655 2.365)">
      <path id="Path_808" data-name="Path 808" d="M2981.532,506.462h-1.769v-5.678a5.862,5.862,0,0,0-1.409-3.868,4.5,4.5,0,0,0-3.4-1.6c-2.648,0-4.8,2.451-4.8,5.466v5.678h-1.77v-5.678c0-4.124,2.948-7.479,6.572-7.479a6.164,6.164,0,0,1,4.655,2.19,8.013,8.013,0,0,1,1.924,5.289Z" transform="translate(-2968.38 -493.306)" fill="grey"/>
    </g>
    <g id="Group_900" data-name="Group 900" transform="translate(8.308)">
      <path id="Path_809" data-name="Path 809" d="M2974.107,495.619a.884.884,0,0,1-.884-.861l-.078-2.961a.885.885,0,0,1,1.769-.046l.077,2.961a.884.884,0,0,1-.86.908Z" transform="translate(-2973.145 -490.889)" fill="grey"/>
    </g>
    <g id="Group_901" data-name="Group 901" transform="translate(5.307 20.451)">
      <path id="Path_810" data-name="Path 810" d="M2974.54,510.985a3.93,3.93,0,0,1-3.925-3.926,3.709,3.709,0,0,1,.046-.574l1.75.262a2,2,0,0,0-.027.312,2.156,2.156,0,1,0,4.285-.312l1.75-.262a3.9,3.9,0,0,1-3.879,4.5Z" transform="translate(-2970.615 -506.485)" fill="grey"/>
    </g>
  </g>
</svg>
